<svg xmlns="http://www.w3.org/2000/svg" viewBox="0 0 100 100" preserveAspectRatio="xMidYMid" width="200" height="200" style="shape-rendering: auto; display: block; background: rgb(255, 255, 255);"><g data-idx="1"><g data-idx="2">
  <circle fill="#060606" r="4" cy="50" cx="64.99993896484375" data-idx="3" fill-opacity="1">
    
    
  </circle>
  <circle fill="#060606" r="4" cy="50" cx="85.39994049072266" data-idx="6" fill-opacity="0.800005">
    
    
  </circle>
  <circle fill="#060606" r="4" cy="50" cx="45.1999397277832" data-idx="9" fill-opacity="1">
    
    
  </circle>
</g><g transform="matrix(1,0,0,1,-15,0)" data-idx="12">
  <path transform="matrix(6.123233995736766e-17,1,-1,6.123233995736766e-17,100,0)" fill="#060606" d="M50 50L20 50A30 30 0 0 0 80 50Z" data-idx="13"></path>
  <path fill="#060606" d="M50 50L20 50A30 30 0 0 0 80 50Z" data-idx="14" transform="matrix(0.9645578348279377,0.2638715279677612,-0.2638715279677612,0.9645578348279377,14.96568465699118,-11.421468139784942)">
    
  </path>
  <path fill="#060606" d="M50 50L20 50A30 30 0 0 1 80 50Z" data-idx="16" transform="matrix(0.9645578348279377,-0.2638715279677612,0.2638715279677612,0.9645578348279377,-11.421468139784942,14.96568465699118)">
    
  </path>
</g><g data-idx="18"></g></g><text data-watermark="true" text-anchor="middle" dominant-baseline="middle" stroke-opacity="0.1" fill="black" fill-opacity="0.1" stroke="white" stroke-width="1" font-size="5.0" x="50" y="50" data-idx="19" style="opacity: 1; font-size: 5px;">LOADING.IO</text></svg>