<!-- icon666.com - MILLIONS vector ICONS FREE --><svg enable-background="new 0 0 512 512" viewBox="0 0 512 512" xmlns="http://www.w3.org/2000/svg"><g id="_x36_8_Notes"><g><g><path d="m491.946 131.888v219.923c0 38.543-24.507 57.022-54.881 67.412-30.772 10.468-72.805 8.723-82.322-19.352-8.09-23.793 15.386-52.582 53.454-65.588 21.334-7.297 49.092-9.359 67.888 2.299v-204.694c0-14.196-14.91-23.396-27.599-17.131l-168.451 83.512c-12.134 6.028-19.748 18.162-19.748 31.803v206.44c0 38.86-24.506 57.102-54.722 67.333-29.265 9.993-72.488 9.437-82.322-19.351-8.09-23.793 15.386-52.582 53.454-65.509 26.41-9.042 51.947-7.614 67.729 2.141v-191.054c0-19.668 10.945-37.354 28.631-46.079l168.372-83.432c23.235-11.579 50.517 5.394 50.517 31.327z"></path><path d="m270.12 17.366-73.757 36.562c-23.237 11.499-37.671 34.737-37.671 60.591v186.534c0 38.862-24.506 57.103-54.723 67.333-29.107 9.914-72.488 9.518-82.322-19.351-8.09-23.793 15.386-52.582 53.454-65.509 26.41-9.04 51.947-7.613 67.729 2.141v-171.148c0-31.961 17.844-60.591 46.475-74.787l73.757-36.64c3.965-1.903 8.724-.317 10.627 3.649 1.983 3.885.397 8.643-3.569 10.625z"></path></g></g></g></svg>